<svg xmlns="http://www.w3.org/2000/svg" xmlns:xlink="http://www.w3.org/1999/xlink" width="1024" zoomAndPan="magnify" viewBox="0 0 768 767.999994" height="1024" preserveAspectRatio="xMidYMid meet" version="1.0"><path fill="#b58900" d="M 358.398438 140.800781 L 409.601562 140.800781 L 409.601562 64 L 448 64 L 384 0 L 320 64 L 358.398438 64 Z M 358.398438 140.800781 " fill-opacity="1" fill-rule="nonzero"/><path fill="#b58900" d="M 358.398438 627.199219 L 358.398438 704 L 320 704 L 384 768 L 448 704 L 409.601562 704 L 409.601562 627.199219 Z M 358.398438 627.199219 " fill-opacity="1" fill-rule="nonzero"/><path fill="#b58900" d="M 614.398438 409.601562 L 704 409.601562 L 704 448 L 768 384 L 704 320 L 704 358.398438 L 614.398438 358.398438 Z M 614.398438 409.601562 " fill-opacity="1" fill-rule="nonzero"/><path fill="#b58900" d="M 64 409.601562 L 153.601562 409.601562 L 153.601562 358.398438 L 64 358.398438 L 64 320 L 0 384 L 64 448 Z M 64 409.601562 " fill-opacity="1" fill-rule="nonzero"/><path fill="#b58900" d="M 574.078125 230.144531 L 628.351562 175.871094 L 655.488281 203.007812 L 655.488281 112.511719 L 564.992188 112.511719 L 592.128906 139.648438 L 537.855469 193.921875 Z M 574.078125 230.144531 " fill-opacity="1" fill-rule="nonzero"/><path fill="#b58900" d="M 193.921875 537.855469 L 139.648438 592.128906 L 112.511719 564.992188 L 112.511719 655.488281 L 203.007812 655.488281 L 175.871094 628.351562 L 230.144531 574.078125 Z M 193.921875 537.855469 " fill-opacity="1" fill-rule="nonzero"/><path fill="#b58900" d="M 655.488281 655.488281 L 655.488281 564.992188 L 628.351562 592.128906 L 564.992188 528.769531 L 528.769531 564.992188 L 592.128906 628.351562 L 564.992188 655.488281 Z M 655.488281 655.488281 " fill-opacity="1" fill-rule="nonzero"/><path fill="#b58900" d="M 203.007812 239.230469 L 239.230469 203.007812 L 175.871094 139.648438 L 203.007812 112.511719 L 112.511719 112.511719 L 112.511719 203.007812 L 139.648438 175.871094 Z M 203.007812 239.230469 " fill-opacity="1" fill-rule="nonzero"/><path fill="#b58900" d="M 384 537.601562 C 468.863281 537.601562 537.601562 468.863281 537.601562 384 C 537.601562 299.136719 468.863281 230.398438 384 230.398438 C 299.136719 230.398438 230.398438 299.136719 230.398438 384 C 230.398438 468.863281 299.136719 537.601562 384 537.601562 Z M 332.800781 409.601562 L 358.398438 409.601562 L 358.398438 416 C 358.398438 426.625 366.976562 435.199219 377.601562 435.199219 L 390.398438 435.199219 C 401.023438 435.199219 409.601562 426.625 409.601562 416 C 409.601562 405.375 401.023438 396.800781 390.398438 396.800781 L 377.601562 396.800781 C 352.894531 396.800781 332.800781 376.703125 332.800781 352 C 332.800781 329.472656 349.566406 311.039062 371.199219 307.839844 L 371.199219 294.398438 L 396.800781 294.398438 L 396.800781 307.839844 C 418.433594 311.039062 435.199219 329.472656 435.199219 352 L 435.199219 358.398438 L 409.601562 358.398438 L 409.601562 352 C 409.601562 341.375 401.023438 332.800781 390.398438 332.800781 L 377.601562 332.800781 C 366.976562 332.800781 358.398438 341.375 358.398438 352 C 358.398438 362.625 366.976562 371.199219 377.601562 371.199219 L 390.398438 371.199219 C 415.105469 371.199219 435.199219 391.296875 435.199219 416 C 435.199219 438.527344 418.433594 456.960938 396.800781 460.160156 L 396.800781 473.601562 L 371.199219 473.601562 L 371.199219 460.160156 C 349.566406 456.960938 332.800781 438.527344 332.800781 416 Z M 332.800781 409.601562 " fill-opacity="1" fill-rule="nonzero"/></svg>