<svg xmlns="http://www.w3.org/2000/svg" xmlns:xlink="http://www.w3.org/1999/xlink" width="500" zoomAndPan="magnify" viewBox="0 0 375 374.999991" height="500" preserveAspectRatio="xMidYMid meet" version="1.0"><path fill="#375a7f" d="M 103.074219 263.890625 L 64.617188 302.347656 L 64.617188 296.554688 C 64.617188 293.414062 62.074219 290.875 58.933594 290.875 C 55.796875 290.875 53.253906 293.414062 53.253906 296.554688 L 53.253906 316.0625 C 53.253906 316.804688 53.40625 317.539062 53.691406 318.234375 C 54.265625 319.625 55.375 320.730469 56.765625 321.308594 C 57.460938 321.59375 58.195312 321.746094 58.933594 321.746094 L 78.441406 321.746094 C 81.578125 321.746094 84.125 319.203125 84.125 316.0625 C 84.125 312.921875 81.578125 310.382812 78.441406 310.382812 L 72.652344 310.382812 L 111.109375 271.925781 C 113.328125 269.707031 113.328125 266.109375 111.109375 263.890625 C 108.890625 261.671875 105.292969 261.671875 103.074219 263.890625 Z M 103.074219 263.890625 " fill-opacity="1" fill-rule="nonzero"/><path fill="#375a7f" d="M 267.910156 112.773438 C 269.363281 112.773438 270.816406 112.21875 271.925781 111.109375 L 310.382812 72.652344 L 310.382812 78.4375 C 310.382812 81.578125 312.925781 84.121094 316.066406 84.121094 C 319.203125 84.121094 321.746094 81.578125 321.746094 78.4375 L 321.746094 58.933594 C 321.746094 58.195312 321.59375 57.457031 321.308594 56.761719 C 320.734375 55.371094 319.625 54.265625 318.234375 53.691406 C 317.539062 53.402344 316.804688 53.253906 316.066406 53.253906 L 296.558594 53.253906 C 293.421875 53.253906 290.875 55.792969 290.875 58.933594 C 290.875 62.074219 293.421875 64.617188 296.558594 64.617188 L 302.347656 64.617188 L 263.890625 103.074219 C 261.671875 105.292969 261.671875 108.886719 263.890625 111.109375 C 265 112.21875 266.453125 112.773438 267.910156 112.773438 Z M 267.910156 112.773438 " fill-opacity="1" fill-rule="nonzero"/><path fill="#375a7f" d="M 19.398438 193.179688 L 73.785156 193.179688 C 76.921875 193.179688 79.46875 190.636719 79.46875 187.496094 C 79.46875 184.355469 76.921875 181.816406 73.785156 181.816406 L 19.398438 181.816406 L 23.492188 177.71875 C 25.710938 175.5 25.710938 171.90625 23.492188 169.683594 C 21.273438 167.464844 17.679688 167.464844 15.457031 169.683594 L 1.667969 183.472656 C 1.144531 184 0.726562 184.628906 0.4375 185.324219 C -0.136719 186.714844 -0.136719 188.277344 0.4375 189.667969 C 0.726562 190.363281 1.144531 190.992188 1.667969 191.519531 L 15.457031 205.308594 C 16.566406 206.417969 18.023438 206.972656 19.476562 206.972656 C 20.929688 206.972656 22.382812 206.417969 23.492188 205.308594 C 25.710938 203.089844 25.710938 199.492188 23.492188 197.273438 Z M 19.398438 193.179688 " fill-opacity="1" fill-rule="nonzero"/><path fill="#375a7f" d="M 374.5625 189.667969 C 375.136719 188.277344 375.136719 186.714844 374.5625 185.324219 C 374.273438 184.628906 373.855469 184 373.332031 183.472656 L 359.542969 169.683594 C 357.320312 167.464844 353.726562 167.464844 351.507812 169.683594 C 349.289062 171.90625 349.289062 175.5 351.507812 177.71875 L 355.601562 181.816406 L 301.214844 181.816406 C 298.078125 181.816406 295.53125 184.355469 295.53125 187.496094 C 295.53125 190.636719 298.078125 193.179688 301.214844 193.179688 L 355.601562 193.179688 L 351.507812 197.273438 C 349.289062 199.492188 349.289062 203.089844 351.507812 205.308594 C 352.617188 206.417969 354.070312 206.972656 355.523438 206.972656 C 356.976562 206.972656 358.433594 206.417969 359.542969 205.308594 L 373.332031 191.519531 C 373.855469 190.992188 374.273438 190.363281 374.5625 189.667969 Z M 374.5625 189.667969 " fill-opacity="1" fill-rule="nonzero"/><path fill="#375a7f" d="M 72.652344 64.617188 L 78.441406 64.617188 C 81.578125 64.617188 84.125 62.074219 84.125 58.933594 C 84.125 55.792969 81.578125 53.253906 78.441406 53.253906 L 58.933594 53.253906 C 58.195312 53.253906 57.460938 53.402344 56.765625 53.691406 C 55.375 54.265625 54.265625 55.371094 53.691406 56.761719 C 53.40625 57.457031 53.253906 58.195312 53.253906 58.933594 L 53.253906 78.4375 C 53.253906 81.578125 55.796875 84.121094 58.933594 84.121094 C 62.074219 84.121094 64.617188 81.578125 64.617188 78.4375 L 64.617188 72.652344 L 103.074219 111.109375 C 104.183594 112.21875 105.636719 112.773438 107.089844 112.773438 C 108.546875 112.773438 110 112.21875 111.109375 111.109375 C 113.328125 108.886719 113.328125 105.292969 111.109375 103.074219 Z M 72.652344 64.617188 " fill-opacity="1" fill-rule="nonzero"/><path fill="#375a7f" d="M 316.066406 290.875 C 312.925781 290.875 310.382812 293.414062 310.382812 296.554688 L 310.382812 302.347656 L 271.925781 263.890625 C 269.707031 261.671875 266.109375 261.671875 263.890625 263.890625 C 261.671875 266.109375 261.671875 269.707031 263.890625 271.925781 L 302.347656 310.382812 L 296.558594 310.382812 C 293.421875 310.382812 290.875 312.921875 290.875 316.0625 C 290.875 319.203125 293.421875 321.746094 296.558594 321.746094 L 316.066406 321.746094 C 316.804688 321.746094 317.539062 321.59375 318.234375 321.308594 C 319.625 320.730469 320.734375 319.625 321.308594 318.234375 C 321.59375 317.539062 321.746094 316.804688 321.746094 316.0625 L 321.746094 296.554688 C 321.746094 293.414062 319.203125 290.875 316.066406 290.875 Z M 316.066406 290.875 " fill-opacity="1" fill-rule="nonzero"/><path fill="#375a7f" d="M 177.722656 23.488281 L 181.816406 19.394531 L 181.816406 73.78125 C 181.816406 76.921875 184.363281 79.464844 187.5 79.464844 C 190.636719 79.464844 193.183594 76.921875 193.183594 73.78125 L 193.183594 19.394531 L 197.277344 23.488281 C 198.386719 24.597656 199.839844 25.152344 201.292969 25.152344 C 202.746094 25.152344 204.203125 24.597656 205.3125 23.488281 C 207.53125 21.269531 207.53125 17.675781 205.3125 15.453125 L 191.519531 1.664062 C 190.996094 1.140625 190.367188 0.722656 189.667969 0.433594 C 188.28125 -0.140625 186.71875 -0.140625 185.332031 0.433594 C 184.632812 0.722656 184.003906 1.140625 183.480469 1.664062 L 169.6875 15.453125 C 167.46875 17.675781 167.46875 21.269531 169.6875 23.488281 C 171.910156 25.707031 175.503906 25.707031 177.722656 23.488281 Z M 177.722656 23.488281 " fill-opacity="1" fill-rule="nonzero"/><path fill="#375a7f" d="M 197.277344 351.503906 L 193.183594 355.597656 L 193.183594 301.210938 C 193.183594 298.070312 190.636719 295.527344 187.5 295.527344 C 184.363281 295.527344 181.816406 298.070312 181.816406 301.210938 L 181.816406 355.597656 L 177.722656 351.503906 C 175.503906 349.285156 171.910156 349.285156 169.6875 351.503906 C 167.46875 353.722656 167.46875 357.320312 169.6875 359.539062 L 183.480469 373.328125 C 184.003906 373.855469 184.632812 374.269531 185.328125 374.558594 C 186.023438 374.84375 186.761719 374.996094 187.5 374.996094 C 188.238281 374.996094 188.976562 374.84375 189.671875 374.558594 C 190.367188 374.269531 190.996094 373.855469 191.519531 373.328125 L 205.3125 359.539062 C 207.53125 357.320312 207.53125 353.722656 205.3125 351.503906 C 203.089844 349.285156 199.496094 349.285156 197.277344 351.503906 Z M 197.277344 351.503906 " fill-opacity="1" fill-rule="nonzero"/><path fill="#375a7f" d="M 235.144531 106.171875 L 165.144531 106.171875 C 155.710938 106.171875 148.097656 113.84375 148.097656 123.21875 L 148.097656 131.398438 L 139.859375 131.398438 C 130.429688 131.398438 122.8125 139.070312 122.8125 148.445312 L 122.8125 251.796875 C 122.8125 261.171875 130.429688 268.84375 139.859375 268.84375 L 209.917969 268.84375 C 219.289062 268.84375 226.960938 261.171875 226.960938 251.796875 L 226.960938 243.617188 L 235.144531 243.617188 C 244.519531 243.617188 252.1875 235.945312 252.1875 226.570312 L 252.1875 123.21875 C 252.1875 113.84375 244.519531 106.171875 235.144531 106.171875 Z M 215.597656 251.796875 C 215.597656 254.921875 213.042969 257.480469 209.917969 257.480469 L 139.859375 257.480469 C 136.734375 257.480469 134.175781 254.921875 134.175781 251.796875 L 134.175781 148.445312 C 134.175781 145.320312 136.734375 142.761719 139.859375 142.761719 L 148.097656 142.761719 L 148.097656 226.570312 C 148.097656 235.945312 155.710938 243.617188 165.144531 243.617188 L 215.597656 243.617188 Z M 223.78125 220.886719 L 176.507812 220.886719 C 173.324219 220.886719 170.824219 218.332031 170.824219 215.207031 C 170.824219 212.023438 173.324219 209.523438 176.507812 209.523438 L 223.78125 209.523438 C 226.90625 209.523438 229.460938 212.023438 229.460938 215.207031 C 229.460938 218.332031 226.90625 220.886719 223.78125 220.886719 Z M 223.78125 194.011719 L 176.507812 194.011719 C 173.324219 194.011719 170.824219 191.511719 170.824219 188.332031 C 170.824219 185.207031 173.324219 182.648438 176.507812 182.648438 L 223.78125 182.648438 C 226.90625 182.648438 229.460938 185.207031 229.460938 188.332031 C 229.460938 191.511719 226.90625 194.011719 223.78125 194.011719 Z M 223.78125 167.136719 L 176.507812 167.136719 C 173.324219 167.136719 170.824219 164.582031 170.824219 161.457031 C 170.824219 158.332031 173.324219 155.773438 176.507812 155.773438 L 223.78125 155.773438 C 226.90625 155.773438 229.460938 158.332031 229.460938 161.457031 C 229.460938 164.582031 226.90625 167.136719 223.78125 167.136719 Z M 223.78125 140.261719 L 176.507812 140.261719 C 173.324219 140.261719 170.824219 137.707031 170.824219 134.582031 C 170.824219 131.457031 173.324219 128.898438 176.507812 128.898438 L 223.78125 128.898438 C 226.90625 128.898438 229.460938 131.457031 229.460938 134.582031 C 229.460938 137.707031 226.90625 140.261719 223.78125 140.261719 Z M 223.78125 140.261719 " fill-opacity="1" fill-rule="nonzero"/></svg>